<svg width="375" height="401" viewBox="0 0 375 401" fill="none" xmlns="http://www.w3.org/2000/svg">
<path d="M-37 333.372V-11H435.521C439.592 71.3972 437.706 255.628 397.59 333.372C347.445 430.553 216.94 297.5 156.508 375.115C108.163 437.206 7.35909 373.158 -37 333.372Z" fill="#FCCA27"/>
<path d="M57.7032 236.398C57.7032 254.689 74.985 282.906 19.9656 277.268C0.487171 277.268 -28 254.689 -28 236.398C-28 218.107 30.113 161 49.5914 161C69.0698 161 57.7032 218.107 57.7032 236.398Z" fill="#F8D871"/>
<path d="M101.707 33.0714C101.707 58.1012 123.829 96.713 53.3997 88.9989C28.4658 88.9989 -8 58.1012 -8 33.0714C-8 8.04148 41.3106 -1 66.2445 -1C91.1785 -1 101.707 8.04148 101.707 33.0714Z" fill="#F8D871"/>
<path d="M397.4 42.8533C436.087 50.3407 520.874 24.0415 512.907 65.2081C504.94 106.375 414.737 160.658 376.05 153.171C337.362 145.683 312.459 106.241 320.426 65.0748C328.393 23.9082 358.713 35.366 397.4 42.8533Z" fill="#FFFAEA" fill-opacity="0.43"/>
</svg>
